<svg width="200" height="200" viewBox="0 0 200 200" fill="none" xmlns="http://www.w3.org/2000/svg">
<rect width="200" height="200" fill="#1E1E1E"/>
<rect width="200" height="200" fill="url(#paint0_linear_6_2)"/>
<path d="M61.448 181V112.4H90.358C94.67 112.4 98.59 113.38 102.118 115.34C105.646 117.235 108.455 119.913 110.546 123.376C112.637 126.839 113.682 130.889 113.682 135.528C113.682 139.971 112.637 143.956 110.546 147.484C108.521 150.947 105.744 153.658 102.216 155.618C98.688 157.578 94.67 158.558 90.162 158.558H70.856V181H61.448ZM70.856 150.228H89.084C91.8933 150.228 94.4413 149.673 96.728 148.562C99.08 147.386 100.909 145.687 102.216 143.466C103.588 141.245 104.274 138.599 104.274 135.528C104.274 132.392 103.588 129.746 102.216 127.59C100.844 125.369 99.0147 123.67 96.728 122.494C94.4413 121.318 91.926 120.73 89.182 120.73H70.856V150.228ZM124.995 181V112.4H162.235C165.698 112.4 168.736 113.184 171.349 114.752C173.962 116.255 176.02 118.313 177.523 120.926C179.026 123.539 179.777 126.512 179.777 129.844C179.777 132.131 179.287 134.352 178.307 136.508C177.392 138.599 176.086 140.428 174.387 141.996C172.688 143.564 170.663 144.74 168.311 145.524C170.99 146.177 173.309 147.353 175.269 149.052C177.229 150.751 178.764 152.776 179.875 155.128C181.051 157.48 181.639 160.028 181.639 162.772C181.639 166.169 180.855 169.24 179.287 171.984C177.719 174.728 175.53 176.917 172.721 178.55C169.977 180.183 166.678 181 162.823 181H124.995ZM134.403 172.67H160.667C163.084 172.67 165.142 172.147 166.841 171.102C168.54 169.991 169.846 168.587 170.761 166.888C171.741 165.124 172.231 163.262 172.231 161.302C172.231 159.277 171.741 157.447 170.761 155.814C169.781 154.115 168.409 152.743 166.645 151.698C164.881 150.587 162.79 150.032 160.373 150.032H134.403V172.67ZM134.403 142.094H159.001C161.288 142.094 163.28 141.604 164.979 140.624C166.743 139.579 168.082 138.239 168.997 136.606C169.977 134.907 170.467 133.143 170.467 131.314C170.467 129.419 170.01 127.688 169.095 126.12C168.18 124.487 166.906 123.18 165.273 122.2C163.64 121.22 161.745 120.73 159.589 120.73H134.403V142.094Z" fill="white"/>
<path d="M120.624 195V193.98H122.244V187.62H120.624V186.6H125.004V187.62H123.396V193.98H125.004V195H120.624ZM126.501 195V191.46C126.501 190.916 126.621 190.44 126.861 190.032C127.109 189.624 127.449 189.308 127.881 189.084C128.313 188.852 128.805 188.736 129.357 188.736C129.917 188.736 130.409 188.852 130.833 189.084C131.265 189.308 131.601 189.624 131.841 190.032C132.089 190.44 132.213 190.916 132.213 191.46V195H131.109V191.472C131.109 191.104 131.025 190.788 130.857 190.524C130.697 190.252 130.481 190.044 130.209 189.9C129.945 189.756 129.661 189.684 129.357 189.684C129.053 189.684 128.765 189.756 128.493 189.9C128.229 190.044 128.013 190.252 127.845 190.524C127.685 190.788 127.605 191.104 127.605 191.472V195H126.501ZM136.054 195C135.51 195 135.082 194.844 134.77 194.532C134.466 194.22 134.314 193.796 134.314 193.26V187.344H135.418V193.188C135.418 193.452 135.49 193.664 135.634 193.824C135.786 193.976 135.994 194.052 136.258 194.052H137.494V195H136.054ZM133.258 189.828V188.88H137.518V189.828H133.258ZM141.773 195C141.101 195 140.505 194.876 139.985 194.628C139.465 194.372 139.057 194.016 138.761 193.56C138.473 193.096 138.329 192.556 138.329 191.94C138.329 191.332 138.453 190.788 138.701 190.308C138.949 189.82 139.293 189.436 139.733 189.156C140.173 188.876 140.685 188.736 141.269 188.736C141.901 188.736 142.425 188.872 142.841 189.144C143.265 189.416 143.581 189.784 143.789 190.248C143.997 190.704 144.101 191.216 144.101 191.784C144.101 191.872 144.097 191.964 144.089 192.06C144.089 192.156 144.081 192.24 144.065 192.312H139.505C139.545 192.688 139.669 193.008 139.877 193.272C140.085 193.528 140.349 193.724 140.669 193.86C140.997 193.988 141.357 194.052 141.749 194.052H143.345V195H141.773ZM139.493 191.532H142.985C142.985 191.38 142.969 191.22 142.937 191.052C142.905 190.876 142.849 190.708 142.769 190.548C142.689 190.38 142.581 190.232 142.445 190.104C142.317 189.968 142.153 189.86 141.953 189.78C141.761 189.7 141.533 189.66 141.269 189.66C140.989 189.66 140.741 189.716 140.525 189.828C140.317 189.932 140.137 190.076 139.985 190.26C139.833 190.436 139.717 190.636 139.637 190.86C139.557 191.084 139.509 191.308 139.493 191.532ZM145.473 195V190.62C145.473 190.076 145.625 189.652 145.929 189.348C146.241 189.036 146.669 188.88 147.213 188.88H148.473V189.828H147.417C147.153 189.828 146.945 189.904 146.793 190.056C146.649 190.208 146.577 190.42 146.577 190.692V195H145.473ZM152.589 188.736C153.053 188.736 153.477 188.812 153.861 188.964C154.245 189.108 154.577 189.324 154.857 189.612C155.137 189.9 155.353 190.248 155.505 190.656C155.665 191.056 155.745 191.508 155.745 192.012C155.745 192.644 155.613 193.196 155.349 193.668C155.093 194.14 154.741 194.504 154.293 194.76C153.845 195.016 153.337 195.144 152.769 195.144C152.457 195.144 152.157 195.092 151.869 194.988C151.589 194.884 151.337 194.74 151.113 194.556C150.897 194.364 150.721 194.148 150.585 193.908H150.561V197.64H149.457V191.976C149.457 191.288 149.593 190.704 149.865 190.224C150.145 189.744 150.521 189.376 150.993 189.12C151.465 188.864 151.997 188.736 152.589 188.736ZM152.589 189.684C152.221 189.684 151.881 189.776 151.569 189.96C151.265 190.144 151.021 190.404 150.837 190.74C150.661 191.076 150.573 191.472 150.573 191.928C150.573 192.392 150.661 192.796 150.837 193.14C151.021 193.476 151.265 193.736 151.569 193.92C151.881 194.104 152.225 194.196 152.601 194.196C152.985 194.196 153.329 194.1 153.633 193.908C153.937 193.716 154.177 193.452 154.353 193.116C154.537 192.78 154.629 192.388 154.629 191.94C154.629 191.476 154.537 191.076 154.353 190.74C154.169 190.404 153.921 190.144 153.609 189.96C153.305 189.776 152.965 189.684 152.589 189.684ZM157.121 195V190.62C157.121 190.076 157.273 189.652 157.577 189.348C157.889 189.036 158.317 188.88 158.861 188.88H160.121V189.828H159.065C158.801 189.828 158.593 189.904 158.441 190.056C158.297 190.208 158.225 190.42 158.225 190.692V195H157.121ZM164.25 195C163.578 195 162.982 194.876 162.462 194.628C161.942 194.372 161.534 194.016 161.238 193.56C160.95 193.096 160.806 192.556 160.806 191.94C160.806 191.332 160.93 190.788 161.178 190.308C161.426 189.82 161.77 189.436 162.21 189.156C162.65 188.876 163.162 188.736 163.746 188.736C164.378 188.736 164.902 188.872 165.318 189.144C165.742 189.416 166.058 189.784 166.266 190.248C166.474 190.704 166.578 191.216 166.578 191.784C166.578 191.872 166.574 191.964 166.566 192.06C166.566 192.156 166.558 192.24 166.542 192.312H161.982C162.022 192.688 162.146 193.008 162.354 193.272C162.562 193.528 162.826 193.724 163.146 193.86C163.474 193.988 163.834 194.052 164.226 194.052H165.822V195H164.25ZM161.97 191.532H165.462C165.462 191.38 165.446 191.22 165.414 191.052C165.382 190.876 165.326 190.708 165.246 190.548C165.166 190.38 165.058 190.232 164.922 190.104C164.794 189.968 164.63 189.86 164.43 189.78C164.238 189.7 164.01 189.66 163.746 189.66C163.466 189.66 163.218 189.716 163.002 189.828C162.794 189.932 162.614 190.076 162.462 190.26C162.31 190.436 162.194 190.636 162.114 190.86C162.034 191.084 161.986 191.308 161.97 191.532ZM170.073 195C169.529 195 169.101 194.844 168.789 194.532C168.485 194.22 168.333 193.796 168.333 193.26V187.344H169.437V193.188C169.437 193.452 169.509 193.664 169.653 193.824C169.805 193.976 170.013 194.052 170.277 194.052H171.513V195H170.073ZM167.277 189.828V188.88H171.537V189.828H167.277ZM175.793 195C175.121 195 174.525 194.876 174.005 194.628C173.485 194.372 173.077 194.016 172.781 193.56C172.493 193.096 172.349 192.556 172.349 191.94C172.349 191.332 172.473 190.788 172.721 190.308C172.969 189.82 173.313 189.436 173.753 189.156C174.193 188.876 174.705 188.736 175.289 188.736C175.921 188.736 176.445 188.872 176.861 189.144C177.285 189.416 177.601 189.784 177.809 190.248C178.017 190.704 178.121 191.216 178.121 191.784C178.121 191.872 178.117 191.964 178.109 192.06C178.109 192.156 178.101 192.24 178.085 192.312H173.525C173.565 192.688 173.689 193.008 173.897 193.272C174.105 193.528 174.369 193.724 174.689 193.86C175.017 193.988 175.377 194.052 175.769 194.052H177.365V195H175.793ZM173.513 191.532H177.005C177.005 191.38 176.989 191.22 176.957 191.052C176.925 190.876 176.869 190.708 176.789 190.548C176.709 190.38 176.601 190.232 176.465 190.104C176.337 189.968 176.173 189.86 175.973 189.78C175.781 189.7 175.553 189.66 175.289 189.66C175.009 189.66 174.761 189.716 174.545 189.828C174.337 189.932 174.157 190.076 174.005 190.26C173.853 190.436 173.737 190.636 173.657 190.86C173.577 191.084 173.529 191.308 173.513 191.532ZM179.492 195V190.62C179.492 190.076 179.644 189.652 179.948 189.348C180.26 189.036 180.688 188.88 181.232 188.88H182.492V189.828H181.436C181.172 189.828 180.964 189.904 180.812 190.056C180.668 190.208 180.596 190.42 180.596 190.692V195H179.492Z" fill="white"/>
<defs>
<linearGradient id="paint0_linear_6_2" x1="0" y1="0" x2="200" y2="200" gradientUnits="userSpaceOnUse">
<stop stop-color="#00A1C5"/>
<stop offset="1" stop-color="#00596C"/>
</linearGradient>
</defs>
</svg>
